<svg version="1.0" xmlns="http://www.w3.org/2000/svg" width="512.000000pt" height="512.000000pt" viewBox="0 0 512.000000 512.000000" preserveAspectRatio="xMidYMid meet">
	<g transform="translate(0.000000,512.000000) scale(0.100000,-0.100000)" fill="#000000" stroke="none">
		<path d="M2360 4824 c-14 -2 -65 -9 -115 -15 -217 -27 -525 -125 -735 -236 -636 -336 -1063 -925 -1191 -1643 -27 -150 -36 -434 -20 -595 71 -697 448 -1311 1043 -1699 184 -120 473 -242 698 -295 403 -96 842 -76 1240 55 154 51 393 165 525 251 206 135 428 342 574 536 452 602 579 1372 345 2086 -106 323 -285 618 -524 865 -133 137 -228 216 -382 319 -375 250 -810 379 -1266 376 -92 -1 -178 -3 -192 -5z m74 -229 c11 -53 12 -72 3 -77 -23 -15 -36 -8 -59 34 -24 44 -36 52 -55 40 -9 -6 -9 -30 3 -107 19 -133 20 -133 57 -137 26 -2 33 -8 35 -29 3 -25 1 -26 -63 -33 -36 -4 -100 -14 -142 -22 -51 -11 -78 -13 -85 -6 -14 14 -3 41 19 49 39 14 41 20 27 106 -24 150 -23 147 -48 147 -24 0 -36 -21 -36 -68 0 -23 -38 -47 -52 -33 -3 3 -8 39 -10 80 l-3 74 150 24 c83 12 168 27 190 31 22 5 43 6 47 3 4 -4 14 -38 22 -76z m341 65 c66 -7 138 -14 161 -16 l41 -5 -4 -57 c-6 -76 -9 -84 -35 -80 -15 2 -24 14 -32 43 -11 39 -12 40 -62 43 l-51 3 -6 -38 c-7 -44 2 -53 55 -53 42 0 52 -11 44 -46 -6 -22 -10 -24 -49 -18 -23 4 -46 7 -52 8 -12 1 -20 -84 -8 -94 4 -5 27 -11 50 -15 l43 -7 24 56 c24 55 37 64 64 47 11 -6 11 -21 -1 -82 l-13 -74 -50 0 c-27 1 -111 7 -186 15 -134 13 -138 14 -138 37 0 16 6 23 20 23 21 0 23 8 40 150 13 113 13 118 -10 125 -13 4 -20 15 -20 32 0 22 3 25 28 19 15 -3 81 -10 147 -16z m-933 -180 c10 -30 37 -94 60 -142 35 -74 45 -88 65 -88 18 0 23 -5 23 -25 0 -14 -6 -25 -13 -25 -7 0 -50 -18 -96 -40 -45 -22 -87 -38 -92 -34 -12 7 -12 44 1 44 13 0 13 21 0 54 l-9 26 -46 -22 c-44 -22 -52 -37 -39 -72 3 -9 17 -16 30 -16 13 0 24 -2 24 -4 0 -2 3 -11 6 -20 5 -12 -10 -23 -62 -46 -74 -34 -92 -30 -79 17 9 30 7 246 -2 276 -3 14 -11 17 -29 13 -17 -5 -26 -1 -34 15 -7 11 -10 22 -8 23 2 1 41 19 88 39 47 21 103 48 125 61 22 14 46 24 54 23 8 -1 22 -27 33 -57z m1639 -10 c30 -16 71 -37 92 -47 20 -9 37 -20 37 -25 0 -5 -12 -31 -26 -59 -18 -36 -30 -49 -40 -45 -9 3 -20 6 -24 6 -5 0 -10 21 -12 47 -2 39 -7 50 -28 60 -21 11 -28 10 -44 -6 -22 -23 -13 -44 41 -91 66 -57 75 -87 46 -147 -24 -50 -82 -76 -143 -62 -41 9 -200 94 -200 106 0 3 12 32 26 64 21 46 32 59 48 59 19 0 21 5 18 35 -14 117 93 170 209 105z m422 -273 c67 -56 134 -112 150 -124 15 -11 27 -24 27 -28 0 -10 -83 -124 -91 -125 -3 0 -14 6 -24 14 -17 13 -18 15 -2 55 22 53 21 71 -1 71 -16 0 -89 -75 -141 -146 -22 -30 -22 -33 -6 -58 19 -29 14 -56 -11 -56 -9 0 -42 23 -73 52 -31 28 -77 67 -103 87 -27 19 -48 41 -48 48 0 20 28 27 57 14 31 -14 39 -8 125 97 59 71 68 102 32 102 -9 0 -32 -9 -50 -21 -26 -16 -37 -18 -54 -9 -11 6 -20 14 -20 18 0 6 101 112 107 112 2 0 59 -46 126 -103z m-2647 -12 c3 -8 -1 -24 -10 -36 -14 -21 -12 -26 44 -98 33 -42 70 -87 83 -99 l25 -23 28 24 29 25 -23 46 c-12 26 -22 52 -22 60 0 14 37 52 44 45 14 -15 96 -141 96 -147 0 -5 -19 -23 -42 -40 -24 -17 -83 -67 -133 -111 -49 -45 -95 -81 -101 -81 -17 0 -26 30 -13 46 14 17 9 25 -80 129 -61 71 -78 86 -98 83 -16 -2 -30 4 -36 13 -8 13 -3 23 24 47 157 137 174 147 185 117z m987 -60 c-324 -162 -546 -565 -640 -1160 -65 -413 42 -1116 233 -1523 104 -223 228 -368 397 -463 l52 -30 -45 7 c-25 3 -89 20 -144 36 -331 98 -643 318 -849 599 -445 608 -416 1438 71 2019 223 266 529 452 887 539 126 31 135 25 38 -24z m787 -6 c479 -141 870 -504 1059 -981 109 -275 135 -623 70 -924 -122 -565 -532 -1023 -1078 -1204 -110 -37 -249 -70 -288 -70 -10 0 12 13 48 29 248 106 436 347 558 719 123 374 177 920 126 1290 -78 573 -309 1002 -620 1154 l-60 29 45 -7 c25 -3 88 -19 140 -35z m-380 -237 c0 -115 3 -358 7 -540 l6 -330 -31 -31 c-41 -41 -75 -40 -118 3 l-34 34 0 536 0 536 85 0 85 0 0 -208z m165 142 c50 -23 119 -67 155 -96 l65 -53 -60 -8 c-33 -4 -109 -6 -170 -5 l-110 3 -3 107 c-3 124 -17 119 123 52z m-385 -59 l0 -105 -172 0 c-95 0 -168 4 -163 8 88 76 142 114 218 154 51 26 98 48 105 48 9 0 12 -27 12 -105z m-1415 -149 c85 -40 145 -117 145 -184 -1 -64 -89 -200 -148 -228 -75 -35 -189 9 -260 100 -45 59 -17 176 65 266 65 73 116 85 198 46z m2027 -6 c50 -14 114 -65 160 -125 l38 -50 -68 -6 c-37 -4 -158 -7 -269 -8 l-203 -1 0 93 c0 52 3 97 7 100 10 11 294 8 335 -3z m1248 -32 c12 -24 49 -80 81 -126 33 -45 59 -84 59 -87 0 -2 -39 -24 -87 -50 -126 -66 -183 -110 -183 -139 0 -15 -7 -26 -17 -28 -13 -2 -34 22 -75 85 -32 48 -58 92 -58 97 0 17 22 22 45 10 19 -10 27 -9 49 5 l26 18 -19 31 c-28 44 -44 52 -76 38 -20 -9 -25 -17 -20 -31 4 -14 0 -23 -13 -30 -17 -9 -25 -3 -60 51 -46 70 -43 90 13 81 18 -3 90 5 159 18 l127 23 -7 29 c-4 20 -2 32 7 38 21 13 24 12 49 -33z m-1850 -63 l0 -95 -224 0 c-123 0 -244 -3 -270 -6 -60 -9 -60 4 2 81 30 38 66 69 101 87 52 27 57 28 222 28 l169 0 0 -95z m844 -177 c23 -41 70 -168 64 -173 -2 -1 -148 -5 -325 -8 l-323 -5 0 108 0 109 63 4 c34 2 160 4 279 5 l217 2 25 -42z m-844 -78 l0 -110 -325 0 c-179 0 -325 4 -325 8 0 16 37 116 61 165 l23 47 283 0 283 0 0 -110z m-1750 -109 c36 -15 45 -24 45 -42 0 -22 -5 -24 -51 -27 -41 -2 -53 -7 -57 -22 -12 -47 49 -101 137 -121 45 -10 57 -9 84 5 42 22 52 59 23 90 -22 24 -27 51 -11 61 5 3 27 -4 50 -15 35 -18 40 -25 40 -56 0 -19 -14 -71 -31 -115 -38 -97 -65 -119 -149 -119 -66 0 -165 42 -198 85 -37 47 -38 86 -3 195 36 113 38 114 121 81z m3863 -51 c18 -64 81 -263 92 -292 9 -23 -143 -78 -156 -57 -15 25 -10 36 31 63 39 26 50 49 30 61 -6 4 -60 -8 -120 -26 l-110 -32 0 -38 c0 -35 -3 -39 -25 -39 -14 0 -27 6 -29 13 -2 6 -20 64 -40 128 -41 133 -42 137 -20 146 11 4 26 -4 43 -25 l26 -31 108 34 c60 18 111 35 113 38 3 3 3 15 -1 26 -5 17 -15 21 -54 21 -41 0 -49 4 -59 24 -10 23 -9 25 46 39 95 26 103 22 125 -53z m-1362 -4 c83 -18 134 -44 178 -90 39 -41 36 -45 -11 -16 -54 33 -184 70 -246 70 -121 0 -259 -55 -356 -142 l-56 -50 0 116 0 115 43 4 c115 10 386 6 448 -7z m-751 -113 l0 -117 -32 31 c-98 91 -245 153 -367 153 -77 0 -150 -19 -234 -62 -52 -26 -57 -27 -47 -9 11 21 59 60 98 81 56 28 151 38 365 39 l217 1 0 -117z m792 -43 c70 -21 147 -79 173 -130 12 -24 12 -30 0 -46 -15 -19 -15 -19 -27 0 -55 94 -221 146 -370 116 -110 -21 -204 -87 -240 -167 -17 -38 -17 -46 -4 -77 17 -42 66 -70 151 -85 81 -15 198 -14 270 3 33 8 61 14 61 13 1 -1 -81 -105 -182 -232 -101 -126 -183 -232 -184 -235 0 -3 94 -146 209 -319 l208 -313 -12 -42 c-57 -189 -171 -371 -291 -466 -78 -62 -182 -126 -191 -117 -3 3 9 106 26 229 36 261 34 238 17 238 -9 0 -26 -58 -55 -197 -24 -109 -44 -202 -47 -208 -4 -10 0 100 12 304 6 95 5 113 -7 109 -10 -3 -22 -64 -44 -219 l-30 -214 -6 175 c-4 96 -7 196 -8 222 -1 35 -5 46 -14 42 -9 -3 -22 -72 -42 -217 -15 -117 -31 -218 -34 -225 -4 -7 -22 89 -41 213 -24 158 -38 225 -47 225 -10 0 -13 -47 -13 -212 0 -119 -4 -206 -9 -198 -4 8 -21 98 -36 200 -16 109 -33 191 -41 200 -12 12 -14 8 -14 -30 0 -25 7 -121 15 -214 8 -93 14 -171 12 -172 -2 -2 -10 27 -19 64 -9 37 -30 129 -48 205 -24 101 -36 137 -47 137 -12 0 -14 -8 -10 -32 26 -145 69 -450 65 -454 -10 -9 -113 43 -175 89 -34 25 -80 70 -103 98 -47 59 -134 233 -179 355 l-29 81 208 324 c174 271 206 326 195 339 -88 106 -375 460 -375 463 0 3 19 -2 42 -10 98 -34 307 -24 396 19 50 23 79 71 68 111 -10 43 -69 110 -125 144 -105 63 -263 70 -379 18 -62 -28 -122 -82 -122 -110 0 -22 -13 -18 -29 7 -13 21 -11 25 40 71 105 94 243 140 353 117 82 -17 169 -64 238 -130 l61 -58 -7 -339 c-7 -342 -10 -383 -28 -383 -16 0 -97 -60 -108 -80 -18 -33 17 -75 77 -94 18 -6 22 -4 17 9 -6 15 21 55 37 55 5 0 37 -18 71 -40 37 -24 75 -40 93 -40 29 0 127 49 140 70 18 28 82 -11 69 -43 -9 -25 29 -10 72 27 24 21 35 38 32 48 -4 8 -35 34 -70 57 -63 42 -63 43 -69 99 -4 31 -7 200 -8 374 l-1 317 48 49 c56 58 116 98 187 124 61 23 159 19 257 -12z m0 -173 c46 -27 63 -50 52 -69 -24 -39 -222 -75 -346 -63 -82 8 -98 23 -70 62 58 82 112 105 233 100 71 -2 93 -7 131 -30z m-1068 12 c40 -11 126 -89 126 -115 0 -27 -52 -36 -195 -32 -116 3 -148 8 -187 25 -55 25 -61 47 -24 82 48 45 189 65 280 40z m-1425 -112 c81 -39 106 -103 90 -229 -10 -84 -30 -119 -81 -148 -34 -19 -51 -21 -123 -18 -65 2 -90 8 -111 24 -55 41 -69 70 -72 154 -7 135 37 219 123 238 54 13 121 4 174 -21z m2700 -92 l1 -70 -161 -202 -160 -203 125 -186 126 -186 -21 -82 c-11 -44 -24 -84 -27 -88 -4 -3 -89 116 -189 266 l-181 273 236 299 c262 331 249 321 251 179z m-1488 -197 c127 -155 232 -286 233 -293 1 -12 -346 -565 -355 -565 -11 0 -51 178 -43 192 4 7 49 76 99 153 50 77 102 158 115 181 l24 41 -163 198 -163 197 7 89 c4 49 9 89 10 89 2 0 108 -127 236 -282z m2723 225 c3 -21 8 -77 11 -125 7 -85 6 -88 -14 -88 -12 0 -24 7 -28 16 -5 15 -20 16 -125 10 -136 -8 -144 -10 -151 -37 -6 -21 -45 -27 -51 -6 -3 6 -7 60 -11 120 -5 94 -4 108 11 114 11 4 23 -2 34 -17 17 -22 21 -23 111 -16 123 9 159 16 159 30 0 16 21 36 36 36 7 0 15 -17 18 -37z m-1234 -486 c-9 -93 -24 -183 -46 -286 -5 -21 -19 -5 -100 118 -52 78 -94 146 -94 151 0 4 55 77 123 162 l122 153 3 -95 c2 -52 -2 -144 -8 -203z m-1614 117 c65 -80 119 -148 119 -152 0 -16 -180 -291 -187 -284 -22 24 -77 582 -56 582 2 0 58 -66 124 -146z m2764 6 c66 -34 82 -69 78 -175 -4 -105 -32 -175 -82 -207 -26 -16 -44 -19 -107 -15 -98 5 -161 38 -190 100 -23 52 -24 88 -3 180 18 79 50 119 108 137 46 14 149 4 196 -20z m-3760 -157 c12 -49 24 -97 27 -109 6 -28 -26 -42 -44 -18 -10 14 -18 15 -62 4 -55 -13 -56 -16 -30 -87 10 -27 7 -26 65 -12 37 10 44 15 44 35 0 18 5 24 23 24 20 0 25 -11 50 -105 16 -57 26 -109 22 -115 -9 -14 -26 -13 -45 5 -14 13 -28 12 -121 -10 -130 -31 -149 -39 -149 -65 0 -19 -3 -22 -31 -24 -6 -1 -22 40 -35 89 -13 50 -27 100 -30 112 -8 30 23 44 41 19 11 -14 20 -15 55 -7 23 5 44 12 47 15 7 7 -17 96 -26 96 -34 0 -83 -25 -91 -46 -5 -13 -17 -24 -27 -24 -14 0 -23 19 -39 88 -12 48 -25 95 -29 104 -9 24 19 34 49 19 18 -10 36 -9 92 4 138 31 174 44 174 64 0 22 9 31 30 31 14 0 23 -20 40 -87z m3427 -304 c6 -6 9 -17 6 -25 -6 -15 51 -53 155 -102 68 -32 74 -33 91 -18 21 19 33 20 48 5 15 -15 -54 -169 -82 -180 -11 -4 -59 -13 -107 -19 -49 -7 -88 -15 -88 -19 0 -4 21 -17 46 -30 l47 -22 22 21 c19 18 27 20 44 11 21 -12 21 -12 -14 -82 -38 -74 -64 -88 -75 -39 -4 20 -31 38 -135 92 -72 37 -134 69 -140 71 -6 2 0 25 13 54 l24 50 112 17 c62 10 118 21 125 25 7 5 -10 18 -47 34 -71 32 -78 33 -92 7 -12 -22 -46 -27 -52 -8 -6 17 64 168 77 168 6 0 16 -5 22 -11z m-3229 -227 c21 -32 46 -83 56 -113 19 -55 19 -57 0 -95 -37 -76 -168 -145 -248 -130 -20 4 -50 19 -66 34 -29 27 -110 164 -110 187 0 15 115 70 129 61 19 -12 12 -39 -19 -71 -28 -29 -29 -32 -14 -53 21 -30 76 -29 142 4 59 29 92 66 92 101 0 42 -18 63 -54 63 -33 0 -66 24 -52 38 10 10 68 30 89 31 11 1 32 -21 55 -57z m2800 -606 c7 -4 17 -4 22 -1 6 3 10 -1 10 -9 0 -9 7 -16 15 -16 9 0 12 -6 9 -15 -4 -10 0 -15 11 -15 14 0 15 -3 5 -15 -10 -12 -9 -15 5 -15 14 0 15 -3 5 -15 -6 -8 -9 -19 -6 -24 4 -5 2 -12 -3 -16 -6 -3 -8 -12 -4 -20 3 -9 -1 -15 -11 -15 -10 0 -13 -6 -10 -15 5 -11 2 -13 -10 -9 -9 3 -16 1 -16 -5 0 -6 -9 -11 -20 -11 -11 0 -20 -5 -20 -12 0 -9 -3 -9 -12 0 -8 8 -15 9 -25 1 -10 -9 -13 -7 -13 6 0 11 -5 15 -15 11 -9 -3 -15 0 -15 10 0 10 -6 14 -14 11 -13 -5 -30 25 -27 47 1 5 -4 13 -11 18 -11 8 -11 10 0 15 10 4 10 8 1 19 -8 10 -8 14 0 14 6 0 11 7 11 15 0 8 5 15 10 15 6 0 10 7 10 15 0 8 7 15 15 15 8 0 15 5 15 11 0 6 7 9 15 5 8 -3 15 -1 15 4 0 10 40 8 58 -4z m-2488 -23 c0 -13 3 -13 15 -3 12 10 15 10 15 -4 0 -9 7 -16 16 -16 10 0 14 -6 10 -15 -3 -9 0 -15 10 -15 8 0 12 -5 9 -10 -4 -6 -1 -17 5 -25 10 -12 10 -15 1 -15 -8 0 -10 -8 -6 -20 4 -11 2 -20 -4 -20 -6 0 -8 -7 -5 -15 4 -9 0 -15 -10 -15 -10 0 -13 -5 -9 -17 5 -12 2 -15 -10 -10 -11 4 -17 1 -17 -7 0 -9 -7 -12 -20 -9 -13 3 -20 0 -20 -8 0 -10 -3 -10 -12 -1 -8 8 -15 9 -25 1 -10 -9 -13 -8 -13 4 0 10 -6 14 -15 11 -9 -4 -15 0 -15 10 0 10 -6 13 -15 10 -9 -4 -15 0 -15 10 0 9 -5 16 -11 16 -6 0 -8 9 -4 20 4 12 2 20 -6 20 -8 0 -9 4 0 13 8 10 7 17 -1 25 -9 9 -9 12 0 12 7 0 12 7 12 15 0 8 5 15 10 15 6 0 10 7 10 15 0 8 7 15 15 15 8 0 15 5 15 11 0 6 7 9 15 6 8 -4 16 -3 19 1 9 14 56 10 56 -5z m1560 -293 c0 -36 -2 -40 -25 -40 -22 0 -25 -4 -25 -35 0 -36 0 -36 36 -29 l35 6 -3 -38 c-3 -35 -6 -39 -32 -42 l-28 -4 6 -59 c9 -80 13 -87 44 -91 19 -2 27 -9 27 -23 0 -17 -12 -22 -105 -37 -58 -9 -110 -17 -116 -17 -17 -1 -26 29 -14 44 6 8 10 45 8 87 -3 65 -5 73 -24 76 -17 2 -20 8 -16 30 3 15 13 33 24 40 11 8 18 25 18 46 0 21 8 40 23 54 36 34 110 72 140 72 25 0 27 -3 27 -40z m368 24 c17 -12 22 -25 22 -60 0 -58 -10 -76 -65 -114 -25 -17 -45 -35 -45 -40 0 -20 55 -23 101 -7 26 10 52 17 58 17 23 0 10 -37 -26 -72 -43 -40 -58 -49 -126 -72 -44 -15 -52 -15 -81 -1 -49 23 -69 67 -74 160 l-4 81 42 38 c41 37 130 84 160 85 9 1 26 -6 38 -15z m-1158 -62 c18 -15 22 -25 16 -46 -6 -26 -9 -27 -45 -21 -34 6 -40 3 -56 -22 -10 -15 -20 -49 -23 -75 -4 -43 -2 -48 22 -59 52 -24 21 -48 -67 -51 -57 -3 -68 0 -91 21 -49 46 -27 160 45 228 38 35 53 40 125 42 37 1 58 -4 74 -17z m385 -66 c46 -30 51 -58 32 -153 -16 -75 -16 -87 -3 -102 10 -11 12 -21 5 -34 -8 -14 -24 -17 -90 -17 -73 0 -81 2 -86 21 -4 12 -11 18 -20 15 -8 -4 -40 -9 -70 -13 -67 -7 -83 7 -83 73 0 73 62 124 149 124 43 0 54 8 41 30 -6 10 -23 11 -69 7 l-61 -7 0 34 c0 42 13 46 142 41 61 -2 95 -8 113 -19z" />
		<path d="M1687 4413 c-10 -10 -8 -131 2 -137 13 -8 61 11 61 24 0 13 -48 120 -53 120 -2 0 -7 -3 -10 -7z"/>
		<path d="M3284 4265 c-5 -30 -2 -41 17 -61 12 -13 33 -24 45 -24 50 0 42 44 -16 90 l-39 31 -7 -36z"/>
		<path d="M828 3699 c-10 -5 -18 -17 -18 -24 0 -44 153 -155 213 -155 34 0 50 21 38 53 -12 31 -84 90 -142 116 -50 23 -66 25 -91 10z"/>
		<path d="M4183 3668 c-24 -5 -43 -12 -43 -16 0 -6 17 -34 36 -60 4 -6 114 72 114 80 0 10 -53 8 -107 -4z"/>
		<path d="M2432 1920 c-205 -54 -328 -194 -265 -301 37 -63 132 -73 271 -29 87 27 171 26 262 -5 86 -29 117 -31 189 -9 133 39 134 133 2 245 -126 109 -288 143 -459 99z m265 -116 c77 -28 141 -65 174 -100 l24 -26 -28 -23 c-42 -37 -88 -41 -160 -15 -34 12 -93 25 -130 27 -57 4 -79 0 -133 -21 -35 -14 -83 -26 -107 -26 -43 0 -107 30 -107 51 0 21 63 70 144 109 131 65 200 70 323 24z"/>
		<path d="M2475 1776 c-84 -27 -185 -88 -185 -111 0 -16 10 -15 139 12 80 17 178 14 306 -10 69 -13 105 -12 105 3 0 14 -101 73 -166 96 -71 26 -137 29 -199 10z"/>
		<path d="M2920 1548 c-22 -24 -27 -77 -8 -96 21 -21 65 -14 87 14 23 29 26 55 11 85 -15 26 -64 25 -90 -3z"/>
		<path d="M2100 1541 c-15 -29 -12 -55 10 -83 25 -32 53 -40 79 -21 28 19 28 76 1 103 -26 26 -76 26 -90 1z"/>
		<path d="M3072 1480 c-47 -44 -36 -100 19 -100 32 0 59 31 59 70 0 50 -40 65 -78 30z"/>
		<path d="M1967 1483 c-16 -15 -6 -65 18 -88 58 -59 116 2 64 69 -20 25 -66 36 -82 19z"/>
		<path d="M2871 1374 c-25 -32 -26 -52 -5 -82 19 -27 34 -28 68 -1 28 22 36 75 14 97 -20 20 -55 13 -77 -14z"/>
		<path d="M2166 1374 c-35 -35 -5 -114 43 -114 51 0 67 65 26 105 -28 29 -47 31 -69 9z"/>
		<path d="M2990 1310 c-24 -24 -26 -63 -4 -81 33 -28 98 40 81 85 -9 22 -53 20 -77 -4z"/>
		<path d="M2044 1305 c-17 -44 39 -110 75 -88 42 26 13 103 -40 103 -17 0 -32 -6 -35 -15z"/>
		<path d="M2845 1186 c-20 -30 -16 -75 7 -90 13 -8 24 -6 45 10 22 17 28 29 28 60 0 37 -2 39 -32 42 -25 2 -35 -2 -48 -22z"/>
		<path d="M2193 1193 c-21 -8 -15 -71 7 -93 36 -36 80 -23 80 24 0 50 -46 86 -87 69z"/>
		<path d="M2980 2928 c-24 -18 -44 -38 -44 -43 -1 -14 137 -18 199 -5 30 6 59 17 65 25 19 23 -34 49 -110 53 -62 4 -68 2 -110 -30z"/>
		<path d="M2040 2952 c-38 -4 -110 -33 -110 -43 0 -23 53 -40 138 -46 108 -7 150 0 131 23 -37 45 -105 73 -159 66z"/>
		<path d="M547 2730 c-65 -20 -76 -59 -24 -87 23 -13 56 -17 124 -18 82 0 95 2 114 22 20 19 21 24 8 39 -8 9 -28 23 -44 30 -42 17 -144 25 -178 14z"/>
		<path d="M4374 2309 c-18 -5 -35 -17 -39 -26 -20 -54 166 -114 248 -80 47 20 49 50 5 77 -46 27 -165 44 -214 29z"/>
		<path d="M3140 753 c0 -54 12 -69 35 -43 15 16 17 26 9 48 -5 15 -17 28 -27 30 -14 3 -17 -4 -17 -35z"/>
		<path d="M2343 583 c-18 -7 -16 -60 2 -67 17 -6 35 22 35 53 0 20 -12 25 -37 14z"/>
	</g>
</svg>
